<svg xmlns="http://www.w3.org/2000/svg" version="1.1" xmlns:xlink="http://www.w3.org/1999/xlink" xmlns:svgjs="http://svgjs.dev/svgjs" viewBox="0 0 16.282321039194972 4.163476747654421"><g transform="matrix(1,0,0,1,3.422926946225634,1.1945933738272108)"><g><path d=" M 0.689724 1.7742899999999995 Q 0.64974 1.7742899999999995 0.6259994999999999 1.7530484999999996 Q 0.602259 1.7318069999999994 0.592263 1.7018189999999995 L 0.06747299999999999 0.0999599999999996 Q 0.064974 0.08746499999999946 0.064974 0.07746899999999957 Q 0.064974 0.057476999999999556 0.079968 0.04123349999999948 Q 0.09496199999999999 0.024989999999999624 0.117453 0.024989999999999624 L 0.37984799999999996 0.024989999999999624 Q 0.417333 0.024989999999999624 0.4385745 0.04623149999999954 Q 0.459816 0.06747299999999945 0.464814 0.08496599999999943 L 0.8546579999999999 1.3069769999999994 L 1.242003 0.08496599999999943 Q 1.2495 0.06747299999999945 1.269492 0.04623149999999954 Q 1.2894839999999999 0.024989999999999624 1.326969 0.024989999999999624 L 1.589364 0.024989999999999624 Q 1.611855 0.024989999999999624 1.626849 0.04123349999999948 Q 1.641843 0.057476999999999556 1.641843 0.07746899999999957 Q 1.641843 0.08746499999999946 1.639344 0.0999599999999996 L 1.114554 1.7018189999999995 Q 1.107057 1.7318069999999994 1.0833165 1.7530484999999996 Q 1.059576 1.7742899999999995 1.017093 1.7742899999999995 L 0.689724 1.7742899999999995 M 2.337073292695312 1.7742899999999995 Q 2.309584292695312 1.7742899999999995 2.292091292695312 1.7567969999999995 Q 2.274598292695312 1.7393039999999995 2.274598292695312 1.7118149999999994 L 2.274598292695312 0.08746499999999946 Q 2.274598292695312 0.059975999999999585 2.292091292695312 0.042482999999999604 Q 2.309584292695312 0.024989999999999624 2.337073292695312 0.024989999999999624 L 3.469120292695312 0.024989999999999624 Q 3.496609292695312 0.024989999999999624 3.514102292695312 0.042482999999999604 Q 3.531595292695312 0.059975999999999585 3.531595292695312 0.08746499999999946 L 3.531595292695312 0.28738499999999956 Q 3.531595292695312 0.3123749999999996 3.514102292695312 0.3298679999999996 Q 3.496609292695312 0.3473609999999996 3.469120292695312 0.3473609999999996 L 2.659444292695312 0.3473609999999996 L 2.659444292695312 0.7397039999999995 L 3.4141422926953124 0.7397039999999995 Q 3.441631292695312 0.7397039999999995 3.459124292695312 0.7571969999999995 Q 3.476617292695312 0.7746899999999995 3.476617292695312 0.8021789999999995 L 3.476617292695312 0.9871049999999995 Q 3.476617292695312 1.0120949999999995 3.459124292695312 1.0295879999999995 Q 3.441631292695312 1.0470809999999995 3.4141422926953124 1.0470809999999995 L 2.659444292695312 1.0470809999999995 L 2.659444292695312 1.4519189999999995 L 3.489112292695312 1.4519189999999995 Q 3.516601292695312 1.4519189999999995 3.534094292695312 1.4694119999999995 Q 3.551587292695312 1.4869049999999995 3.551587292695312 1.5143939999999994 L 3.551587292695312 1.7118149999999994 Q 3.551587292695312 1.7393039999999995 3.534094292695312 1.7567969999999995 Q 3.516601292695312 1.7742899999999995 3.489112292695312 1.7742899999999995 L 2.337073292695312 1.7742899999999995 M 4.2943522748437495 1.7742899999999995 Q 4.266863274843749 1.7742899999999995 4.249370274843749 1.7567969999999995 Q 4.231877274843749 1.7393039999999995 4.231877274843749 1.7118149999999994 L 4.231877274843749 0.08746499999999946 Q 4.231877274843749 0.059975999999999585 4.249370274843749 0.042482999999999604 Q 4.266863274843749 0.024989999999999624 4.2943522748437495 0.024989999999999624 L 4.956587274843749 0.024989999999999624 Q 5.26896227484375 0.024989999999999624 5.44889027484375 0.16868249999999962 Q 5.628818274843749 0.3123749999999996 5.628818274843749 0.5822669999999994 Q 5.628818274843749 0.7646939999999995 5.5413532748437495 0.8871449999999995 Q 5.45388827484375 1.0095959999999995 5.30644727484375 1.0695719999999995 L 5.65880627484375 1.6943219999999994 Q 5.66630327484375 1.7093159999999994 5.66630327484375 1.7218109999999995 Q 5.66630327484375 1.7418029999999995 5.651309274843749 1.7580464999999994 Q 5.636315274843749 1.7742899999999995 5.61382427484375 1.7742899999999995 L 5.336435274843749 1.7742899999999995 Q 5.291453274843749 1.7742899999999995 5.26896227484375 1.7505494999999995 Q 5.246471274843749 1.7268089999999994 5.23647527484375 1.7068169999999996 L 4.9315972748437495 1.1345459999999994 L 4.629218274843749 1.1345459999999994 L 4.629218274843749 1.7118149999999994 Q 4.629218274843749 1.7393039999999995 4.611725274843749 1.7567969999999995 Q 4.594232274843749 1.7742899999999995 4.566743274843749 1.7742899999999995 L 4.2943522748437495 1.7742899999999995 M 4.629218274843749 0.8171729999999995 L 4.9490902748437495 0.8171729999999995 Q 5.086535274843749 0.8171729999999995 5.15275877484375 0.7546979999999994 Q 5.21898227484375 0.6922229999999996 5.21898227484375 0.5797679999999996 Q 5.21898227484375 0.4673129999999994 5.15400827484375 0.40233899999999956 Q 5.089034274843749 0.33736499999999947 4.9490902748437495 0.33736499999999947 L 4.629218274843749 0.33736499999999947 L 4.629218274843749 0.8171729999999995 M 7.013854321933593 1.7992799999999995 Q 6.778948321933592 1.7992799999999995 6.612764821933593 1.7205614999999994 Q 6.446581321933593 1.6418429999999995 6.3553678219335925 1.4906534999999994 Q 6.264154321933592 1.3394639999999995 6.256657321933592 1.1245499999999995 Q 6.254158321933593 1.0170929999999996 6.254158321933593 0.8946419999999995 Q 6.254158321933593 0.7721909999999994 6.256657321933592 0.6622349999999995 Q 6.264154321933592 0.45231899999999947 6.3553678219335925 0.30487799999999954 Q 6.446581321933593 0.1574369999999996 6.615263821933593 0.07871849999999947 Q 6.783946321933593 -4.440892098500626e-16 7.013854321933593 -4.440892098500626e-16 Q 7.198780321933593 -4.440892098500626e-16 7.338724321933593 0.04748099999999944 Q 7.4786683219335925 0.09496199999999955 7.573630321933592 0.17118149999999943 Q 7.668592321933593 0.24740099999999954 7.718572321933593 0.33736499999999947 Q 7.768552321933592 0.4273289999999996 7.771051321933593 0.5097959999999995 Q 7.771051321933593 0.5322869999999995 7.756057321933593 0.5485304999999996 Q 7.741063321933592 0.5647739999999994 7.716073321933592 0.5647739999999994 L 7.406197321933592 0.5647739999999994 Q 7.3812073219335925 0.5647739999999994 7.367462821933593 0.5547779999999995 Q 7.353718321933592 0.5447819999999994 7.343722321933592 0.5247899999999994 Q 7.326229321933592 0.47980799999999957 7.287494821933593 0.4335764999999996 Q 7.2487603219335925 0.3873449999999996 7.183786321933592 0.35485799999999945 Q 7.118812321933593 0.3223709999999995 7.013854321933593 0.3223709999999995 Q 6.856417321933593 0.3223709999999995 6.765203821933593 0.4048379999999996 Q 6.6739903219335925 0.48730499999999943 6.666493321933593 0.6747299999999996 Q 6.658996321933593 0.8896439999999995 6.666493321933593 1.1120549999999993 Q 6.6739903219335925 1.3069769999999994 6.767702821933593 1.3919429999999995 Q 6.861415321933593 1.4769089999999996 7.0188523219335925 1.4769089999999996 Q 7.121311321933593 1.4769089999999996 7.202528821933592 1.4406734999999995 Q 7.2837463219335925 1.4044379999999994 7.331227321933593 1.3269689999999996 Q 7.378708321933592 1.2494999999999994 7.378708321933592 1.1295479999999996 L 7.378708321933592 1.0670729999999995 L 7.1063173219335924 1.0670729999999995 Q 7.081327321933593 1.0670729999999995 7.063834321933593 1.0483304999999996 Q 7.046341321933593 1.0295879999999995 7.046341321933593 1.0045979999999997 L 7.046341321933593 0.8446619999999995 Q 7.046341321933593 0.8171729999999995 7.063834321933593 0.7996799999999995 Q 7.081327321933593 0.7821869999999995 7.1063173219335924 0.7821869999999995 L 7.718572321933593 0.7821869999999995 Q 7.746061321933593 0.7821869999999995 7.763554321933593 0.7996799999999995 Q 7.781047321933593 0.8171729999999995 7.781047321933593 0.8446619999999995 L 7.781047321933593 1.1170529999999994 Q 7.781047321933593 1.3319669999999995 7.687334821933593 1.4844059999999994 Q 7.5936223219335925 1.6368449999999994 7.419941821933593 1.7180624999999994 Q 7.246261321933592 1.7992799999999995 7.013854321933593 1.7992799999999995 M 8.53135201160156 1.7742899999999995 Q 8.503863011601561 1.7742899999999995 8.486370011601561 1.7567969999999995 Q 8.468877011601561 1.7393039999999995 8.468877011601561 1.7118149999999994 L 8.468877011601561 0.08746499999999946 Q 8.468877011601561 0.059975999999999585 8.486370011601561 0.042482999999999604 Q 8.503863011601561 0.024989999999999624 8.53135201160156 0.024989999999999624 L 8.75876101160156 0.024989999999999624 Q 8.79624601160156 0.024989999999999624 8.81373901160156 0.042482999999999604 Q 8.83123201160156 0.059975999999999585 8.836230011601561 0.06997199999999948 L 9.50346301160156 1.1120549999999993 L 9.50346301160156 0.08746499999999946 Q 9.50346301160156 0.059975999999999585 9.52095601160156 0.042482999999999604 Q 9.53844901160156 0.024989999999999624 9.563439011601561 0.024989999999999624 L 9.81833701160156 0.024989999999999624 Q 9.845826011601561 0.024989999999999624 9.863319011601561 0.042482999999999604 Q 9.880812011601561 0.059975999999999585 9.880812011601561 0.08746499999999946 L 9.880812011601561 1.7118149999999994 Q 9.880812011601561 1.7368049999999995 9.863319011601561 1.7555474999999994 Q 9.845826011601561 1.7742899999999995 9.81833701160156 1.7742899999999995 L 9.58842901160156 1.7742899999999995 Q 9.55094401160156 1.7742899999999995 9.53470051160156 1.7555474999999994 Q 9.51845701160156 1.7368049999999995 9.510960011601561 1.7293079999999994 L 8.84622601160156 0.7197119999999995 L 8.84622601160156 1.7118149999999994 Q 8.84622601160156 1.7393039999999995 8.82873301160156 1.7567969999999995 Q 8.81124001160156 1.7742899999999995 8.783751011601561 1.7742899999999995 L 8.53135201160156 1.7742899999999995 M 11.328314517187497 1.7992799999999995 Q 11.100905517187497 1.7992799999999995 10.935971517187497 1.7243099999999996 Q 10.771037517187498 1.6493399999999996 10.678574517187498 1.4981504999999995 Q 10.586111517187497 1.3469609999999994 10.578614517187498 1.1170529999999994 Q 10.576115517187498 1.0095959999999995 10.576115517187498 0.9033884999999995 Q 10.576115517187498 0.7971809999999995 10.578614517187498 0.6872249999999995 Q 10.586111517187497 0.4623149999999996 10.679824017187498 0.30862649999999947 Q 10.773536517187498 0.15493799999999958 10.939720017187497 0.07746899999999957 Q 11.105903517187498 -4.440892098500626e-16 11.328314517187497 -4.440892098500626e-16 Q 11.548226517187498 -4.440892098500626e-16 11.714410017187497 0.07746899999999957 Q 11.880593517187497 0.15493799999999958 11.975555517187498 0.30862649999999947 Q 12.070517517187497 0.4623149999999996 12.075515517187497 0.6872249999999995 Q 12.080513517187498 0.7971809999999995 12.080513517187498 0.9033884999999995 Q 12.080513517187498 1.0095959999999995 12.075515517187497 1.1170529999999994 Q 12.068018517187497 1.3469609999999994 11.975555517187498 1.4981504999999995 Q 11.883092517187498 1.6493399999999996 11.718158517187497 1.7243099999999996 Q 11.553224517187498 1.7992799999999995 11.328314517187497 1.7992799999999995 M 11.328314517187497 1.4769089999999996 Q 11.473256517187497 1.4769089999999996 11.566969017187498 1.3881944999999996 Q 11.660681517187498 1.2994799999999995 11.665679517187497 1.1045579999999995 Q 11.670677517187498 0.9946019999999995 11.670677517187498 0.8983904999999995 Q 11.670677517187498 0.8021789999999995 11.665679517187497 0.6947219999999996 Q 11.663180517187497 0.5647739999999994 11.618198517187498 0.4823069999999996 Q 11.573216517187497 0.39983999999999953 11.499496017187496 0.36110549999999964 Q 11.425775517187498 0.3223709999999995 11.328314517187497 0.3223709999999995 Q 11.230853517187498 0.3223709999999995 11.155883517187497 0.36110549999999964 Q 11.080913517187497 0.39983999999999953 11.037181017187498 0.4823069999999996 Q 10.993448517187497 0.5647739999999994 10.988450517187497 0.6947219999999996 Q 10.985951517187498 0.8021789999999995 10.985951517187498 0.8983904999999995 Q 10.985951517187498 0.9946019999999995 10.988450517187497 1.1045579999999995 Q 10.995947517187497 1.2994799999999995 11.088410517187498 1.3881944999999996 Q 11.180873517187498 1.4769089999999996 11.328314517187497 1.4769089999999996" fill="#382d5e" fill-rule="nonzero"></path></g><g></g><g clip-path="url(#SvgjsClipPath1002)"><g clip-path="url(#SvgjsClipPath10001d6ae782-9d9b-4456-8abe-fe46a411bc23)"><path d=" M -1.7096079475191652 0.26593417571052913 C -1.703691821122127 0.27618822634431517 -1.7005873786998085 0.2878223083370197 -1.700608371101391 0.2996606217838347 C -1.7006060856664857 0.3295230941358469 -1.720198107193117 0.3558490359462907 -1.7488038014363285 0.36442117203140467 L -1.749048559790786 0.5082700500452205 C -1.7146517541627546 0.5096010153742453 -1.682800259081555 0.5267521767983335 -1.6627555502061275 0.5547364822608426 L -1.378459307719944 0.4335277520344206 C -1.378214494433234 0.41551699980150847 -1.3716847920258388 0.3981577365596839 -1.3599988795240696 0.3844505640379091 L -1.5129257821461908 0.10632662518274483 C -1.5233062187283808 0.1092526062410395 -1.5340410249043932 0.11073093878544382 -1.5448259543439233 0.11071972385250994 C -1.5579125237297677 0.11073306799171367 -1.570908822336284 0.10855340638750277 -1.583274981487226 0.1042712825908203 L -1.7096110854467874 0.26594045156577184 Z M -2.3711270210675353 0.6949987090035564 C -2.3491975014188693 0.6949995411328361 -2.3281665801380864 0.7037122365417453 -2.312661245084713 0.7192199255248376 C -2.297155910031339 0.7347276145079292 -2.2884464072725197 0.7557598581566948 -2.288448904102569 0.7776893776790083 C -2.2884558354767335 0.8233463389985388 -2.32547005922174 0.860354943459596 -2.3711270210674735 0.8603549429334899 C -2.4167839829132687 0.8603549434596302 -2.4537982066583037 0.8233463389986014 -2.4538051380325014 0.7776893776790083 C -2.4538076348625344 0.7557598581566306 -2.4450981321036993 0.7347276145078717 -2.429592797050313 0.7192199255247919 C -2.4140874619969273 0.703712236541712 -2.3930565407161377 0.6949995411328195 -2.3711270210674704 0.6949987090035564 Z M -1.0294056529138118 0.31473522607636906 L -1.233807120235087 0.39560275880386797 C -1.2477101103406618 0.371740306984922 -1.2732505732792392 0.3570680752925859 -1.3008677714290404 0.3570784213976559 C -1.3121990550566345 0.35706849447609 -1.3233942540580277 0.35954727071656667 -1.3336622529988318 0.36433958591325366 L -1.482820504547819 0.0930500534171933 C -1.4680299710507336 0.08384508722456119 -1.4554566448898203 0.071484995417323 -1.4460000618399504 0.05685405830595458 L -1.0436832235905458 0.2598246306319356 C -1.043501877344429 0.27902342626723087 -1.0385985027550197 0.2978825593034188 -1.0294056529138114 0.31473836400399 Z M -2.72035953774808 0.7271656050490961 C -2.6934975793930094 0.7271656050490961 -2.6717216596185454 0.7489415248235595 -2.6717216596185454 0.7758034831786308 C -2.6717216596185454 0.8026654415337012 -2.6934975793930094 0.8244413613081655 -2.72035953774808 0.8244413613081655 C -2.747221496103151 0.8244413613081655 -2.7689974158776147 0.8026654415337012 -2.7689974158776147 0.7758034831786308 C -2.7689974158776147 0.7489415248235595 -2.747221496103151 0.7271656050490961 -2.72035953774808 0.7271656050490961 Z M -2.1361652766428065 -0.24057127334758194 C -2.1093033182877354 -0.24057127334758194 -2.087527398513272 -0.2187953535731178 -2.087527398513272 -0.19193339521804725 C -2.087527398513272 -0.16507143686297587 -2.1093033182877354 -0.14329551708851257 -2.1361652766428065 -0.14329551708851257 C -2.1630272349978776 -0.14329551708851257 -2.1848031547723417 -0.16507143686297587 -2.1848031547723417 -0.19193339521804725 C -2.1848031547723417 -0.2187953535731178 -2.1630272349978776 -0.24057127334758194 -2.1361652766428065 -0.24057127334758194 Z M -2.2691224078832275 1.2360966721584412 C -2.2471923444792257 1.2360975041977982 -2.2261609475722786 1.2448106303512132 -2.210655522300721 1.260318998052039 C -2.1951500970291637 1.275827365752865 -2.186440961734248 1.2968604155944274 -2.186444290918261 1.318790478761514 C -2.186444290918261 1.3407177902502827 -2.1951550962477064 1.3617469702169758 -2.2106603411003753 1.3772516265683032 C -2.2261655859530443 1.3927562829196294 -2.247195096529353 1.4014662900654358 -2.269122407942777 1.401465457798857 C -2.3147835532956282 1.4014654579303967 -2.351800196902695 1.3644516240423772 -2.3518036627758145 1.318790478761514 C -2.3518053272992585 1.296860382083636 -2.3430952266306533 1.2758278238490028 -2.327589483508852 1.260319726824902 C -2.312083740387051 1.2448116298008012 -2.291052504560955 1.2360983365555551 -2.2691224078831476 1.2360966721584412 Z M -0.8381175851217839 1.2348195356165887 C -0.7924524660431973 1.2348212683751414 -0.7554335201212177 1.2718388094568525 -0.7554300543739534 1.317503928436797 C -0.7554300543739534 1.3394309515871168 -0.7641409598897266 1.3604598089747646 -0.7796462949980485 1.375963967028877 C -0.7951516301063699 1.3914681250829886 -0.8161811487282031 1.4001774341525293 -0.8381081715771288 1.400175769546503 C -0.8600371136805411 1.4001799311258067 -0.8810693734444028 1.3914718245200715 -0.8965772429249694 1.3759674859751794 C -0.9120851124055354 1.3604631474302873 -0.920798008096553 1.3394328711575216 -0.9207988400143712 1.317503928436797 C -0.9208005736797538 1.271838301243446 -0.8837863494532145 1.234815648091021 -0.8381207230491454 1.234806983906104 Z M -0.744164894213629 0.6945782267023085 C -0.6984997753492288 0.6945851582297288 -0.6614850438325126 0.7316069139478104 -0.6614867772486623 0.7772720333053812 C -0.6614884416457687 0.7991979688323859 -0.670200081880318 0.8202252139376419 -0.6857052365265148 0.835728014681533 C -0.7012103911727126 0.8512308154254234 -0.7222389586865106 0.8599392630833235 -0.7441648942135672 0.8599375985598628 C -0.7660916619950306 0.859940095392458 -0.787121358301021 0.8512321153019674 -0.8026276899155136 0.8357293145409729 C -0.8181340215300066 0.8202265137799795 -0.8268467904855281 0.7991988010868157 -0.8268492870338378 0.7772720333053812 C -0.8268492870338378 0.7316051805355269 -0.7898317456159543 0.6945834250765769 -0.7441648936778007 0.6945782267022477 Z M -0.9038854101357783 0.1684167990246227 C -0.8582173327295339 0.16842546341161646 -0.8212020935390847 0.20545194147839507 -0.8212072931708121 0.25112001941055817 C -0.8212089574609471 0.27304537796438366 -0.8299207979963443 0.2940719779782327 -0.8454261331011035 0.3095737821883755 C -0.8609314682058624 0.3250755863985183 -0.8819600517716819 0.33378263795871277 -0.9038854101358511 0.3337793088097981 C -0.9258107684999475 0.33378263795869356 -0.9468393520657596 0.32507558639848 -0.9623446871705053 0.3095737821883239 C -0.9778500222752502 0.294071977978167 -0.986561862810629 0.2730453779643113 -0.9865635271007447 0.25112001941055906 C -0.9865668562740129 0.22918909044459268 -0.9778580213525037 0.20815507275141454 -0.9623528666652386 0.19264521025946368 C -0.946847711977973 0.17713534776751283 -0.9258163391018941 0.16842012769258996 -0.9038854101358149 0.1684167990246227 Z M -1.5324687953714002 -0.08387258172470596 C -1.5739810678566588 -0.08386911587017615 -1.6076315758281299 -0.05021579818735711 -1.6076315756834483 -0.008703525557415492 C -1.6076315750648824 0.03280773288382288 -1.573980051572614 0.06645925537319863 -1.5324687942513877 0.06645925475463221 C -1.4909587634924328 0.06645752177621933 -1.4573091529507989 0.03280650635772642 -1.4573091529869733 -0.008703525557415492 C -1.4573091523684107 -0.05021457237411936 -1.4909577478189784 -0.08386738280325529 -1.5324687948407605 -0.08387258172464018 Z M -1.0326283045808462 -0.17510468938522894 C -1.0162580822976657 -0.17510385729020878 -1.0005587640330833 -0.16859958417368276 -0.988984445861508 -0.15702291206308594 C -0.9774101276899327 -0.14544623995248823 -0.9709090472484336 -0.1297455993337055 -0.9709115441258989 -0.1133753772197954 C -0.9709115429900941 -0.0792876127718749 -0.9985405411076387 -0.051651590752451126 -1.032628304517724 -0.05164292712675839 C -1.066718308924682 -0.051649857574329716 -1.0943510142113106 -0.07928537234754107 -1.0943544788186579 -0.1133753772197954 C -1.0943569756994906 -0.12974700877084466 -1.0878557649054699 -0.1454490927777053 -1.0762810386433623 -0.15702734989332018 C -1.0647063123812548 -0.16860560700893507 -1.0490062119872139 -0.1751116066680075 -1.0326345804360981 -0.17511410316809173 Z M -2.204248892241292 0.14116389763397585 C -2.182319405928281 0.1411630650479112 -2.161287992911626 0.14987479514878943 -2.1457823871847617 0.16538216635376146 C -2.1302767814578973 0.18088953755873272 -2.121567445927188 0.2019219423057219 -2.121570775276325 0.22385142838180583 C -2.1215699430255555 0.24577957202543266 -2.1302802807886607 0.26680988073963086 -2.145785525626748 0.28231571405670364 C -2.1612907704648348 0.29782154737377653 -2.182320748581976 0.30653268329020134 -2.2042488922413437 0.306532683274394 C -2.2499105451620958 0.30652921752715323 -2.2869252764477253 0.2695130814012594 -2.2869270092062584 0.22385142838180583 C -2.2869286737236316 0.2019224525142439 -2.278218803521901 0.18089101504044724 -2.2627135586804106 0.16538400476192072 C -2.2472083138389194 0.1498769944833943 -2.226177868156335 0.1411647298216011 -2.204248892241342 0.14116389763397585 Z M -1.4021569371157019 -0.540682671044917 C -1.3802271289353962 -0.5406810066854801 -1.359196215669003 -0.5319676132884967 -1.3436909708172342 -0.5164594260416975 C -1.328185725965466 -0.5009512387948983 -1.3194763233352158 -0.47991867254317044 -1.3194788201507357 -0.45798886444184433 C -1.319482285897966 -0.41232894455060753 -1.356497017125817 -0.37531561816302056 -1.4021569371157037 -0.3753138854044998 C -1.4478144068066257 -0.3753138845824583 -1.4848295280229982 -0.4123219817900988 -1.48483819200829 -0.4579794506589807 C -1.4848423535317032 -0.4799111782680734 -1.4761333552346185 -0.500946155039938 -1.4606273414772037 -0.5164562881983091 C -1.4451213277197894 -0.5319664213566798 -1.4240886650563782 -0.5406810068556375 -1.4021569371156524 -0.540682671044917 Z M -0.5076969445306942 0.33122817365371393 C -0.4620293747153461 0.33123163958697444 -0.42501081859588874 0.36825441034280204 -0.425012551710485 0.4139219802567875 C -0.42501948323783223 0.4595819000324518 -0.46203702426177884 0.49659241685507693 -0.5076969445306818 0.4965906834388901 C -0.5533544140027313 0.49658895116793966 -0.590368130340317 0.459579449235585 -0.5903750614956604 0.4139219802567875 C -0.5903785277577431 0.36825614328501166 -0.5533627813380786 0.3312333724713923 -0.5076969445306867 0.33122817365371393 Z M -2.3642455457941116 1.4909497397743392 C -2.3423157376489696 1.4909505719619531 -2.3212844938222132 1.4996631672258731 -2.3057786605051325 1.5151707659799722 C -2.2902728271880504 1.5306783647340705 -2.281562626384166 1.5517106003520302 -2.2815642909015232 1.573640408449791 C -2.2815729542904415 1.6192988927124454 -2.318587060840955 1.6563087849732634 -2.3642455457940916 1.6563122495595155 C -2.409903821250762 1.6563070534762803 -2.446917810957562 1.6192986825914466 -2.4469299386143204 1.573640408449792 C -2.4469299386143204 1.5279740637105341 -2.4099118899255463 1.49095320551594 -2.3642455455559563 1.490949739774321 Z M -0.4931683396442592 1.0272895544569174 C -0.46630638128918855 1.0272895544569174 -0.44453046151472453 1.0490654742313805 -0.44453046151472453 1.075927432586452 C -0.44453046151472453 1.1027893909415227 -0.46630638128918855 1.1245653107159868 -0.4931683396442592 1.1245653107159868 C -0.5200302979993303 1.1245653107159868 -0.5418062177737943 1.1027893909415227 -0.5418062177737943 1.075927432586452 C -0.5418062177737943 1.0490654742313805 -0.5200302979993303 1.0272895544569174 -0.4931683396442592 1.0272895544569174 Z M -1.7171044566063565 2.124522429927765 L -1.4148875094751552 2.124522429927765 C -1.3623631078915306 2.1246792535727463 -1.3198235955643882 2.1672215697169412 -1.3196702337356323 2.21974598152253 L -1.3196702337356323 2.21974598152253 C -1.3198201932506979 2.2722702811409143 -1.3623632049432286 2.3148118908095965 -1.414887509475154 2.3149601193344314 L -1.7171044566063565 2.3149601193344314 C -1.7696238593657179 2.3148050008646335 -1.8121592549949195 2.27226539936243 -1.8123091806353941 2.21974598152253 L -1.8123091806353941 2.21974598152253 C -1.8121575674064019 2.1672257379823474 -1.7696246691398647 2.1246844284636848 -1.7171044566063525 2.124522429927766 Z M -1.8421069413268825 1.834063297593426 L -1.2898661971889023 1.834063297593426 C -1.237345779320281 1.8342218606136176 -1.1948113815816253 1.876763267976159 -1.1946614731598646 1.9292837112605699 L -1.1946614731598646 1.9292837112605699 C -1.1948131212071185 1.9818019036863412 -1.2373480148734708 2.024339601234941 -1.2898661971888996 2.0244947111448504 L -1.8421069413268825 2.0244947111448504 C -1.894630337908699 2.024344794029746 -1.9371736520804061 1.9818070876236975 -1.9373304929216473 1.9292837112605699 L -1.9373304929216473 1.9292837112605699 C -1.9371753914853007 1.8767580842297762 -1.8946325734403324 1.8342166681098768 -1.8421069413268785 1.834063297593426 Z M -1.8511033798170355 -0.20998275489553625 C -1.8121473258897036 -0.20998102201352836 -1.780567637700732 -0.17840133382455625 -1.7805659048187241 -0.13944527989722527 C -1.7805634079105865 -0.12073594738675225 -1.787993911101486 -0.10279204608850256 -1.801222524348048 -0.08956166737907567 C -1.8144511375946109 -0.07633128866964878 -1.832394047139947 -0.0688983909494359 -1.8511033798170355 -0.0688983911160515 C -1.8698124572914838 -0.06889922329634268 -1.8877548831911866 -0.07633238828011679 -1.900983316007358 -0.08956258653507276 C -1.9142117488235293 -0.10279278479002874 -1.9216425193425282 -0.12073620247831579 -1.9216408548153465 -0.13944527989722527 C -1.9216373893463539 -0.17840061609591362 -1.8900587160155577 -0.20997928942663557 -1.8511033798169527 -0.20998275489553625 Z M -2.6348604238516007 0.33392051555275437 C -2.6219581376778023 0.33392051488146024 -2.6095845247561256 0.3390470017223086 -2.600462702090175 0.34817176691169927 C -2.5913408794242243 0.35729653210109 -2.5862183836942676 0.3696717978178935 -2.586222545722066 0.3825740833203962 C -2.586222545722066 0.40943604167546677 -2.607998465496529 0.4312119614499309 -2.6348604238516007 0.4312119614499309 C -2.6617223822066713 0.4312119614499309 -2.6834983019811354 0.40943604167546677 -2.6834983019811354 0.3825740833203962 C -2.683502464008933 0.36967179781789183 -2.678379968278976 0.35729653210108925 -2.6692581456130253 0.3481717669116985 C -2.660136322947075 0.33904700172230773 -2.6477627100253973 0.33392051488145946 -2.6348604238516 0.33392051555275437 Z M -2.6411770721531975 1.081666702205737 C -2.6143151137981264 1.081666702205737 -2.592539194023662 1.103442621980201 -2.592539194023662 1.1303045803352716 C -2.592539194023662 1.1571665386903431 -2.6143151137981264 1.1789424584648063 -2.6411770721531975 1.1789424584648063 C -2.668039030508268 1.1789424584648063 -2.689814950282732 1.1571665386903431 -2.689814950282732 1.1303045803352716 C -2.689814950282732 1.103442621980201 -2.668039030508268 1.081666702205737 -2.6411770721531975 1.081666702205737 Z M -1.8603916455759661 1.4407617253999017 L -1.8975070534802327 1.7258644152847493 L -1.808982977356858 1.7262660700202708 L -1.3092993829473671 1.727747171857505 L -1.2465941752917227 1.7266896902491404 L -1.465426971743174 1.2939977126259357 C -1.4712335575609814 1.2952652720107585 -1.4771595902451962 1.2959049006051138 -1.4831029180337334 1.2959055726196622 C -1.5064493038325044 1.2959256831967774 -1.5287005960167115 1.286007312342155 -1.5442925066483093 1.2686307057356672 L -1.8212522743559862 1.3749154521953755 C -1.8210639986987107 1.3769645189320583 -1.820960447087209 1.3790292753068472 -1.820960447087209 1.3811316868130916 C -1.8209673210515902 1.407108164977112 -1.8364805991054547 1.4305719671601471 -1.8603790938654912 1.440752311617043 Z M -1.8939109884262688 1.4454058582793676 C -1.8945668152991122 1.4509850935899689 -1.921097993336868 1.7207621449725803 -1.921097993336868 1.7207621449725803 L -2.16321421273807 1.3789602408991808 C -2.1545120245981146 1.366019501775277 -2.148492049208132 1.3514657151181741 -2.145510025098919 1.3361589081451908 L -1.9503874097537108 1.3858071989687701 C -1.948145029640668 1.4165848785225421 -1.924517773465538 1.4415155716633326 -1.8939047125710256 1.4454058582793667 Z M -2.143821820038682 1.3027807720378441 L -1.9443908300694832 1.3535147858183803 C -1.9375732529302923 1.339086541624746 -1.9256859851675614 1.3276706096692004 -1.9109938663964094 1.3214420276014787 L -1.931581809519498 1.088413246591446 C -1.9668569846600024 1.078271262065357 -1.991158531951605 1.0460040085201778 -1.99116477919199 1.0092998154042312 C -1.9911737064862387 0.9994179094332892 -1.989401748271126 0.9896152707651614 -1.9859338538473474 0.980361846880966 L -2.26410172368921 0.8477655773169933 C -2.2752784833281776 0.8646784032589022 -2.2906175029163713 0.8784321927142412 -2.3086446062730013 0.8877051200803941 L -2.2634866898754424 1.1960159226520832 C -2.2626206218519753 1.1959876813034915 -2.2617639676113717 1.195981405448249 -2.260897899587903 1.195981405448249 C -2.2001391300601947 1.1959820451170495 -2.1493888333747027 1.242277578424226 -2.1438218200386814 1.3027807720378441 Z M -2.2500406700183433 0.8181749198485092 L -1.9683645970959112 0.9524468427622376 C -1.952859889465198 0.9361636017476008 -1.931350550111266 0.9269590882980031 -1.9088663514691946 0.926985698043331 C -1.900172471465679 0.9269856442446623 -1.8915334377256632 0.9283624670792855 -1.8832702758625741 0.931065003950969 L -1.8019979504719328 0.7205100605644031 C -1.8406510009608308 0.7018812725547124 -1.86521824736332 0.6627595425061102 -1.8652083644745996 0.6198516183296151 C -1.8652075352664736 0.6157960759217721 -1.864990711178979 0.6117434556583757 -1.8645588134570028 0.6077109763630096 L -2.127830940880739 0.35715373166056663 C -2.1468760527237647 0.3695515916842381 -2.1691197471007277 0.3761341986917738 -2.191844664354449 0.3760974007101149 C -2.199841417218292 0.3761015591375817 -2.207818000539455 0.3752951746104517 -2.2156521212169507 0.3736906102246079 L -2.3158743915123847 0.6750163859113719 C -2.2727052769504335 0.6935774928643769 -2.244732455445088 0.7360586705788036 -2.2447375723384133 0.783048958056123 C -2.24472897275481 0.794955908582505 -2.246527613914439 0.8067951995096833 -2.2500720492945647 0.8181623681380564 Z M -1.8325645034306297 1.344148071868919 C -1.8432152555674146 1.3288210611966589 -1.859959857683314 1.3188333137560369 -1.8785069017335023 1.3167445499524524 L -1.8984672593323395 1.0909424162541819 C -1.8573714872215559 1.0856954556718779 -1.8265754218064787 1.0507291877264495 -1.8265616478911597 1.0092998154042312 C -1.8265369247972474 0.9856375550707649 -1.8367229663272888 0.9631152633786934 -1.8545080312861018 0.9475077446863757 L -1.7706186742593308 0.7302596016836588 C -1.764955154894827 0.7311259668500819 -1.759233817235311 0.7315592107909289 -1.7535044170129772 0.7315555657912393 C -1.7250871591032046 0.7315947546681764 -1.6977305876660205 0.7207657375931985 -1.6770393967381063 0.7012871159565633 L -1.3636733927685674 0.8302559411903611 C -1.3649122630504433 0.8369755974839391 -1.3655340697086078 0.8437944637420517 -1.3655310459203533 0.8506273673075825 C -1.365566111656553 0.882134387065698 -1.352261770935337 0.9121837283450399 -1.3289114305802547 0.9333368635487548 L -1.4648966619751822 1.133332680489787 C -1.4708693371813013 1.1319839043958275 -1.4769735674903623 1.1313040194338182 -1.483096642178492 1.1313055792464533 C -1.5285485986204033 1.1313073120037358 -1.5653947420831051 1.16815205062644 -1.5653982078289068 1.213604006969248 C -1.5654044537277054 1.2225664971422359 -1.5639470581816177 1.2314698590237785 -1.5610835573496689 1.2399625989878493 L -1.8325582275753882 1.3441417960136763 Z M -0.8721358584638663 0.799212423233233 L -1.1427381848108702 0.8391331384309065 C -1.1423515284526164 0.8429502774396119 -1.142156731812364 0.8467844199125324 -1.1421545302733158 0.8506210914523405 C -1.1421225522184586 0.874195485817277 -1.1495802167454188 0.8971706305931878 -1.1634516450388206 0.9162320200852884 L -0.9370627188753635 1.2274140264304148 C -0.9153400464235051 1.2071699347513651 -0.8867389296013237 1.1959324998713083 -0.8570455645332256 1.1959751295930072 C -0.8561826344373791 1.1959751295930077 -0.8553228422691541 1.1959751295930077 -0.8544599121733074 1.1960096467968415 L -0.8093114095586142 0.8876988442251531 C -0.8434187431462465 0.8701977715094679 -0.8668629710929128 0.8371793812534624 -0.8721421343191091 0.799209285305612 Z M -1.150893658698526 0.8072204145226892 L -0.87201975514188 0.7660978730460731 C -0.8661046355563136 0.7256618163094714 -0.8396403964515085 0.6911870373248278 -0.8021067277402003 0.6750226617666136 L -0.9023289980356333 0.37369688607984985 C -0.910162045871298 0.37530153813905953 -0.9181375975794521 0.37610792466162113 -0.9261333169705144 0.3761036765653559 C -0.9572050783973163 0.37613986411504663 -0.9870198832313462 0.3638374196612717 -1.0090248130137263 0.34190026549361896 L -1.2236590623079313 0.426818862780165 C -1.223393104067999 0.429435832777474 -1.2232600941524217 0.43206461142392594 -1.2232605455000312 0.4346950611095287 C -1.2232677410748232 0.4717393636277324 -1.2494430907839147 0.5036193445889731 -1.2857774774984179 0.5108368748394142 L -1.2560487512145795 0.7389642129050352 C -1.255317614078826 0.7389453853393072 -1.25458020108783 0.7389328336288227 -1.253852201879697 0.7389328336288227 C -1.2089233710281082 0.7389304518804535 -1.1683628811582714 0.7658380904816992 -1.150896796626146 0.8072329662331746 Z M -0.9602174867926432 1.251237172931022 L -0.953894562635804 1.2468691776822278 C -0.967381048058042 1.266482774255954 -0.9746022711988065 1.2897252656467497 -0.974604884936122 1.3135281741406608 C -0.974604884936122 1.338004009586491 -0.9672778239404791 1.3649462561426318 -0.9547229755278168 1.3836545806205858 L -1.198147710747085 1.7351558189713008 L -1.435418969901061 1.280696037439414 C -1.4136790426076056 1.2652664441956905 -1.4007701839854143 1.2402534836323582 -1.4007888006728326 1.2135945931863836 C -1.4007740603243317 1.1872818888153613 -1.4133548911725653 1.162551836522142 -1.4346313500681438 1.1470705276156505 L -1.3016836326105683 0.9515525333901776 C -1.2867316671546727 0.9586500435410236 -1.2703843696461592 0.9623217265344434 -1.2538333743139696 0.9622999354929941 C -1.2296215465449716 0.9623458266342434 -1.2060573632144118 0.9544819167665631 -1.1867256542056968 0.9399045460600591 L -0.9602017971545369 1.251237172931022 Z M -2.102991105830842 0.33552713449484006 C -2.084707429766424 0.3145179121747955 -2.0745197131763207 0.28767445840281636 -2.074260240530583 0.2598246306319356 L -1.649977908932356 0.0457677600200429 C -1.6413341423261232 0.06298237989783673 -1.6286089584181522 0.07782016841497874 -1.6129127078700294 0.08898643714766152 L -1.7326340604039734 0.24216437397948265 C -1.7433163074329692 0.23554016562036606 -1.7556393273685604 0.2320379366151205 -1.7682087458462012 0.2320539711837818 C -1.7861393660415625 0.23205064173904588 -1.8033366881043489 0.23917143394585894 -1.816016434167999 0.2518494145199417 C -1.828696180231649 0.2645273950940261 -1.83581936703934 0.2817237254434508 -1.835818534373876 0.29965434592859197 C -1.835819017267937 0.33183726325271945 -1.8131350237660304 0.3595602482513185 -1.7815888692227133 0.3659305152173413 L -1.7818273517224714 0.5117782531257901 C -1.8137470088414638 0.5201787876242135 -1.8403355631991718 0.5422320053790398 -1.8544923416479961 0.5720484289473377 L -2.1030162092518125 0.33552399656722 Z M -1.3530264043496294 0.7991967335951266 L -1.6560811781557072 0.674482938215757 C -1.6467107751423107 0.6578015348462948 -1.6418028209383053 0.6389846481051061 -1.6418318488275636 0.6198516183296151 C -1.6418150959732738 0.607637881420875 -1.6438081533362998 0.5955046146550155 -1.6477311527555376 0.5839380367042813 L -1.37177552188666 0.4662971301832425 C -1.3619168291968402 0.4883328393533669 -1.3423899276091864 0.504545558000142 -1.3189171311065302 0.5101841858941888 L -1.2884007849897736 0.7443740001240885 C -1.3162897417756345 0.7534864332751751 -1.339490618543194 0.7731765324588321 -1.353016990566765 0.7992124232332339 Z" fill="#c84449" transform="matrix(1,0,0,1,0,0)" fill-rule="evenodd"></path></g></g></g><defs><clipPath id="SvgjsClipPath1002"><path d=" M -2.7690036917328564 -0.5406701193344324 h 2.3440036917328566 v 2.8556302386688643 h -2.3440036917328566 Z"></path></clipPath><clipPath id="SvgjsClipPath10001d6ae782-9d9b-4456-8abe-fe46a411bc23"><path d=" M -2.7690036917328564 -0.5406701193344324 L -0.4249999999999998 -0.5406701193344324 L -0.4249999999999998 2.314960119334432 L -2.7690036917328564 2.314960119334432 Z"></path></clipPath></defs></svg>